# xmcd
# 
# Track frame offsets:
#     150
#     18150
#     30796
#     46163
#     67452
#     83890
#     99353
#     112504
#     131079
#     147866
#     163277
#     178830
#     193892
#     210002
#     225788
#     240220
# 
# Disc length: 3410
# 
# Revision: 3
# Processed by: cddbd v1.5.2PL0 Copyright (c) Steve Scherf et al.
# Submitted via: fre:ac v1.0.17
# 
DISCID=c00d5010
DTITLE=Various Artist - The Voice Hits Vol. 1 - CD 2 - 2
DYEAR=2014
DGENRE=Dance
TTITLE0=Kasmir - Wowwowwow
TTITLE1=Charli XCX - Boom Clap
TTITLE2=Jukka Poika - Crazybailaaja
TTITLE3=Alicia Keys - We Are Here
TTITLE4=JVG Featuring Pete Parkkonen - Etenee
TTITLE5=Becky G - Shower
TTITLE6=MKTO -  Classic
TTITLE7=Nopsajalka Featuring Erin - Seuraava
TTITLE8=Troye Sivan - Happy Little Pill
TTITLE9=Rita Ora - I Will Never Let You Down
TTITLE10=Diandra - Paha Poika
TTITLE11=Anders Nilsen - Salsa Tequila
TTITLE12=TCT - Rammaa
TTITLE13=Janne Ordén Featuring Redrama - Tuhatta
TTITLE14=Lenno Featuring The Electric Sons - Wake Up
TTITLE15=Kuningasidea - Seis Maailma
EXTD=
EXTT0=
EXTT1=
EXTT2=
EXTT3=
EXTT4=
EXTT5=
EXTT6=
EXTT7=
EXTT8=
EXTT9=
EXTT10=
EXTT11=
EXTT12=
EXTT13=
EXTT14=
EXTT15=
PLAYORDER=
